<svg xmlns="http://www.w3.org/2000/svg" viewBox="0 0 472.6 458.44"><defs><style>.cls-1{fill:#436bb3;}.cls-2{fill:#fff;}.cls-3{fill:#f8ce55;}</style></defs><g id="Layer_2" data-name="Layer 2"><g id="Layer_1-2" data-name="Layer 1"><path class="cls-1" d="M59.23,387.11A59.23,59.23,0,0,1,0,327.88V176.25a63.86,63.86,0,0,1,63.85-63.86H268.57a63.86,63.86,0,0,1,63.86,63.86V327.88a59.05,59.05,0,0,1-17.35,41.89c-17,17-37.94,17.34-41.89,17.34H200.35a4.62,4.62,0,0,0-4.56,5.38L205.88,453a4.62,4.62,0,0,1-7.4,4.41l-89.56-69.82a2.49,2.49,0,0,0-1.51-.52"/><circle class="cls-2" cx="82.23" cy="246.49" r="19.4"/><circle class="cls-2" cx="152.36" cy="246.49" r="19.4"/><circle class="cls-2" cx="225.55" cy="246.49" r="19.4"/></g><g id="Layer_2-2" data-name="Layer 2"><path class="cls-3" d="M413.36,274.72a59.23,59.23,0,0,0,59.24-59.23V63.85A63.86,63.86,0,0,0,408.74,0H204a63.85,63.85,0,0,0-63.85,63.85V215.49a59,59,0,0,0,17.35,41.88c16.95,17,37.94,17.35,41.88,17.35h72.85a4.63,4.63,0,0,1,4.56,5.38l-10.1,60.55a4.63,4.63,0,0,0,7.4,4.41l89.57-69.82a2.48,2.48,0,0,1,1.5-.52"/><circle class="cls-2" cx="242.98" cy="131.74" r="19.4"/><circle class="cls-2" cx="313.11" cy="131.74" r="19.4"/><circle class="cls-2" cx="386.3" cy="131.74" r="19.4"/></g></g></svg>